{"asset":{"generator":"glTF-Transform v4.2.1","version":"2.0","extras":{"author":"ARCTIC  WOLVES™ (https://sketchfab.com/arctic.wolves)","license":"CC-BY-4.0 (http://creativecommons.org/licenses/by/4.0/)","source":"https://sketchfab.com/3d-models/mars-156a95dfec244e07a3ae423f579ffb05","title":"Mars"}},"accessors":[{"type":"VEC3","componentType":5126,"count":4056,"max":[2.4960100650787354,2.4960100650787354,4.996009826660156],"min":[-2.496009349822998,-2.496009349822998,0.00399017333984375],"bufferView":0,"byteOffset":0},{"type":"VEC3","componentType":5126,"count":4056,"bufferView":0,"byteOffset":12},{"type":"VEC4","componentType":5126,"count":4056,"bufferView":0,"byteOffset":24},{"type":"VEC2","componentType":5126,"count":4056,"bufferView":0,"byteOffset":40},{"type":"SCALAR","componentType":5125,"count":22500,"bufferView":1,"byteOffset":0}],"bufferViews":[{"buffer":0,"byteOffset":0,"byteLength":194688,"byteStride":48,"target":34962},{"buffer":0,"byteOffset":194688,"byteLength":90000,"target":34963}],"samplers":[{"magFilter":9729,"minFilter":9987,"wrapS":10497,"wrapT":10497}],"textures":[{"source":0,"sampler":0},{"source":1,"sampler":0}],"images":[{"mimeType":"image/png","uri":"baseColor_1.png"},{"mimeType":"image/png","uri":"normal_1.png"}],"buffers":[{"uri":"mars.bin","byteLength":284688}],"materials":[{"name":"MarsLOD1","doubleSided":true,"pbrMetallicRoughness":{"roughnessFactor":0,"metallicFactor":0,"baseColorTexture":{"index":0}},"normalTexture":{"index":1,"scale":0.2678827933974448},"extensions":{"KHR_materials_specular":{"specularFactor":0}}}],"meshes":[{"name":"Mars_LOD0_MarsLOD1_0","primitives":[{"attributes":{"NORMAL":1,"POSITION":0,"TANGENT":2,"TEXCOORD_0":3},"mode":4,"material":0,"indices":4}]}],"nodes":[{"name":"Sketchfab_model","rotation":[-0.7071067811865475,0,0,0.7071067811865476],"children":[1]},{"name":"3625ddd9ddcb4fa282884ad86c73accb.fbx","rotation":[1,0,0,0],"children":[2]},{"name":"RootNode","children":[3]},{"name":"Mars_LOD0","rotation":[0.707106796640857,0,0,0.7071067657322379],"children":[4]},{"name":"Object_4","translation":[0,-2.5,0],"rotation":[-0.7071067811865475,0,0,0.7071067811865476],"children":[5]},{"name":"Mars_LOD0_MarsLOD1_0","mesh":0}],"scenes":[{"name":"Sketchfab_Scene","nodes":[0]}],"scene":0,"extensionsUsed":["KHR_materials_specular"]}