{"asset":{"generator":"glTF-Transform v4.2.1","version":"2.0","extras":{"author":"ARCTIC  WOLVES™ (https://sketchfab.com/arctic.wolves)","license":"CC-BY-4.0 (http://creativecommons.org/licenses/by/4.0/)","source":"https://sketchfab.com/3d-models/planet-of-phoenix-bbe2737a863445f7bb2a6901d10b090a","title":"Planet Of Phoenix"}},"accessors":[{"type":"VEC3","componentType":5126,"count":3625,"max":[21.964902877807617,21.964975357055664,44.325584411621094],"min":[-21.964902877807617,-21.964975357055664,0.395782470703125],"bufferView":0,"byteOffset":0},{"type":"VEC3","componentType":5126,"count":3625,"bufferView":0,"byteOffset":12},{"type":"VEC4","componentType":5126,"count":3625,"bufferView":0,"byteOffset":24},{"type":"VEC2","componentType":5126,"count":3625,"bufferView":0,"byteOffset":40},{"type":"SCALAR","componentType":5125,"count":20736,"bufferView":1,"byteOffset":0}],"bufferViews":[{"buffer":0,"byteOffset":0,"byteLength":174000,"byteStride":48,"target":34962},{"buffer":0,"byteOffset":174000,"byteLength":82944,"target":34963}],"samplers":[{"magFilter":9729,"minFilter":9987,"wrapS":10497,"wrapT":10497}],"textures":[{"source":0,"sampler":0},{"source":2,"sampler":0},{"source":1,"sampler":0},{"source":3,"sampler":0}],"images":[{"mimeType":"image/png","uri":"baseColor_1.png"},{"mimeType":"image/png","uri":"occlusion_1.png"},{"mimeType":"image/png","uri":"normal_1.png"},{"mimeType":"image/png","uri":"specular_1.png"}],"buffers":[{"uri":"planet_of_phoenix.bin","byteLength":256944}],"materials":[{"name":"Scene_-_Root","doubleSided":true,"pbrMetallicRoughness":{"roughnessFactor":0.858177353251715,"baseColorTexture":{"index":0},"metallicRoughnessTexture":{"index":2}},"normalTexture":{"index":1},"occlusionTexture":{"index":2},"extensions":{"KHR_materials_specular":{"specularTexture":{"index":3}}}}],"meshes":[{"name":"Phoenix_LOD0__0","primitives":[{"attributes":{"NORMAL":1,"POSITION":0,"TANGENT":2,"TEXCOORD_0":3},"mode":4,"material":0,"indices":4}]}],"nodes":[{"name":"Sketchfab_model","rotation":[-0.7071067811865474,0,0,0.7071067811865476],"scale":[0.07761383056640625,0.07761383056640625,0.07761383056640625],"children":[1]},{"name":"2d94b2faa8364f3987e0e654dad2ddb3.fbx","rotation":[1,0,0,0],"scale":[0.0010000000474974513,0.0010000000474974513,0.0010000000474974513],"children":[2]},{"name":"RootNode","children":[3]},{"name":"Phoenix_LOD0","scale":[1000,1000,1000],"children":[4]},{"name":"Object_4","translation":[0,0,-22.360679626464844],"children":[5]},{"name":"Phoenix_LOD0__0","mesh":0}],"scenes":[{"name":"Sketchfab_Scene","nodes":[0]}],"scene":0,"extensionsUsed":["KHR_materials_specular"]}