{"asset":{"generator":"glTF-Transform v4.2.1","version":"2.0","extras":{"author":"ARCTIC  WOLVES™ (https://sketchfab.com/arctic.wolves)","license":"CC-BY-4.0 (http://creativecommons.org/licenses/by/4.0/)","source":"https://sketchfab.com/3d-models/the-star-sun-519dddb6998545e2bf84225394dc71fe","title":"The Star “Sun”"}},"accessors":[{"type":"VEC3","componentType":5126,"count":3625,"max":[21.964902877807617,21.964975357055664,44.325584411621094],"min":[-21.964902877807617,-21.964975357055664,0.395782470703125],"bufferView":0,"byteOffset":0},{"type":"VEC3","componentType":5126,"count":3625,"bufferView":0,"byteOffset":12},{"type":"VEC4","componentType":5126,"count":3625,"bufferView":0,"byteOffset":24},{"type":"VEC2","componentType":5126,"count":3625,"bufferView":0,"byteOffset":40},{"type":"SCALAR","componentType":5125,"count":20736,"bufferView":1,"byteOffset":0},{"type":"SCALAR","componentType":5125,"count":5184,"bufferView":1,"byteOffset":82944},{"type":"SCALAR","componentType":5125,"count":1296,"bufferView":1,"byteOffset":103680},{"type":"SCALAR","componentType":5125,"count":576,"bufferView":1,"byteOffset":108864},{"type":"SCALAR","componentType":5125,"count":144,"bufferView":1,"byteOffset":111168},{"type":"VEC3","componentType":5126,"count":949,"max":[22.10462760925293,22.10471534729004,44.465309143066406],"min":[-22.10462760925293,-22.10471534729004,0.2560539245605469],"bufferView":2,"byteOffset":0},{"type":"VEC3","componentType":5126,"count":949,"bufferView":2,"byteOffset":12},{"type":"VEC4","componentType":5126,"count":949,"bufferView":2,"byteOffset":24},{"type":"VEC2","componentType":5126,"count":949,"bufferView":2,"byteOffset":40},{"type":"VEC3","componentType":5126,"count":259,"max":[22.10462760925293,22.10471534729004,44.465309143066406],"min":[-22.10462760925293,-22.10471534729004,0.2560539245605469],"bufferView":3,"byteOffset":0},{"type":"VEC3","componentType":5126,"count":259,"bufferView":3,"byteOffset":12},{"type":"VEC4","componentType":5126,"count":259,"bufferView":3,"byteOffset":24},{"type":"VEC2","componentType":5126,"count":259,"bufferView":3,"byteOffset":40},{"type":"VEC3","componentType":5126,"count":125,"max":[22.10462760925293,22.10471534729004,44.465309143066406],"min":[-22.10462760925293,-22.10471534729004,0.2560539245605469],"bufferView":4,"byteOffset":0},{"type":"VEC3","componentType":5126,"count":125,"bufferView":4,"byteOffset":12},{"type":"VEC4","componentType":5126,"count":125,"bufferView":4,"byteOffset":24},{"type":"VEC2","componentType":5126,"count":125,"bufferView":4,"byteOffset":40},{"type":"VEC3","componentType":5126,"count":39,"max":[22.10462760925293,22.10471534729004,44.465309143066406],"min":[-22.10462760925293,-22.10471534729004,0.2560539245605469],"bufferView":5,"byteOffset":0},{"type":"VEC3","componentType":5126,"count":39,"bufferView":5,"byteOffset":12},{"type":"VEC4","componentType":5126,"count":39,"bufferView":5,"byteOffset":24},{"type":"VEC2","componentType":5126,"count":39,"bufferView":5,"byteOffset":40}],"bufferViews":[{"buffer":0,"byteOffset":0,"byteLength":174000,"byteStride":48,"target":34962},{"buffer":0,"byteOffset":174000,"byteLength":111744,"target":34963},{"buffer":0,"byteOffset":285744,"byteLength":45552,"byteStride":48,"target":34962},{"buffer":0,"byteOffset":331296,"byteLength":12432,"byteStride":48,"target":34962},{"buffer":0,"byteOffset":343728,"byteLength":6000,"byteStride":48,"target":34962},{"buffer":0,"byteOffset":349728,"byteLength":1872,"byteStride":48,"target":34962}],"samplers":[{"magFilter":9729,"minFilter":9987,"wrapS":10497,"wrapT":10497}],"textures":[{"source":0,"sampler":0},{"source":1,"sampler":0},{"source":3,"sampler":0},{"source":2,"sampler":0}],"images":[{"mimeType":"image/png","uri":"baseColor_1.png"},{"mimeType":"image/png","uri":"normal_1.png"},{"mimeType":"image/png","uri":"specular_1.png"},{"mimeType":"image/png","uri":"metallicRoughness_1.png"}],"buffers":[{"uri":"the_star_sun.bin","byteLength":351600}],"materials":[{"name":"Scene_-_Root","pbrMetallicRoughness":{"metallicFactor":0,"baseColorTexture":{"index":0},"metallicRoughnessTexture":{"index":2}},"emissiveFactor":[1,1,1],"emissiveTexture":{"index":0},"normalTexture":{"index":1},"extensions":{"KHR_materials_emissive_strength":{"emissiveStrength":1.111531656421575},"KHR_materials_ior":{"ior":1000},"KHR_materials_specular":{"specularTexture":{"index":3},"specularColorTexture":{"index":3}}}}],"meshes":[{"name":"Sun_LOD0__0","primitives":[{"attributes":{"NORMAL":1,"POSITION":0,"TANGENT":2,"TEXCOORD_0":3},"mode":4,"material":0,"indices":4}]},{"name":"Sun_LOD1__0","primitives":[{"attributes":{"NORMAL":10,"POSITION":9,"TANGENT":11,"TEXCOORD_0":12},"mode":4,"material":0,"indices":5}]},{"name":"Sun_LOD2__0","primitives":[{"attributes":{"NORMAL":14,"POSITION":13,"TANGENT":15,"TEXCOORD_0":16},"mode":4,"material":0,"indices":6}]},{"name":"Sun_LOD3__0","primitives":[{"attributes":{"NORMAL":18,"POSITION":17,"TANGENT":19,"TEXCOORD_0":20},"mode":4,"material":0,"indices":7}]},{"name":"Sun_LOD4__0","primitives":[{"attributes":{"NORMAL":22,"POSITION":21,"TANGENT":23,"TEXCOORD_0":24},"mode":4,"material":0,"indices":8}]}],"nodes":[{"name":"Sketchfab_model","rotation":[-0.7071067811865475,0,0,0.7071067811865476],"children":[1]},{"name":"a1632867aedc43d296cdc80968130bc8.fbx","rotation":[1,0,0,0],"children":[2]},{"name":"RootNode","children":[3,6,9,12,15]},{"name":"Sun_LOD0","children":[4]},{"name":"Object_4","translation":[0,0,-22.360679626464844],"children":[5]},{"name":"Sun_LOD0__0","mesh":0},{"name":"Sun_LOD1","children":[7]},{"name":"Object_7","translation":[0,0,-22.360679626464844],"children":[8]},{"name":"Sun_LOD1__0","mesh":1},{"name":"Sun_LOD2","children":[10]},{"name":"Object_10","translation":[0,0,-22.360679626464844],"children":[11]},{"name":"Sun_LOD2__0","mesh":2},{"name":"Sun_LOD3","children":[13]},{"name":"Object_13","translation":[0,0,-22.360679626464844],"children":[14]},{"name":"Sun_LOD3__0","mesh":3},{"name":"Sun_LOD4","children":[16]},{"name":"Object_16","translation":[0,0,-22.360679626464844],"children":[17]},{"name":"Sun_LOD4__0","mesh":4}],"scenes":[{"name":"Sketchfab_Scene","nodes":[0]}],"scene":0,"extensionsUsed":["KHR_materials_emissive_strength","KHR_materials_ior","KHR_materials_specular"]}