{"asset":{"generator":"glTF-Transform v4.2.1","version":"2.0","extras":{"author":"ARCTIC  WOLVES™ (https://sketchfab.com/arctic.wolves)","license":"CC-BY-4.0 (http://creativecommons.org/licenses/by/4.0/)","source":"https://sketchfab.com/3d-models/moon-9c73422b05594431a6283d3a13861f38","title":"Moon"}},"accessors":[{"type":"VEC3","componentType":5126,"count":2143,"max":[28.284271240234375,28.284271240234375,28.284271240234375],"min":[-28.284271240234375,-28.284271240234375,-28.284271240234375],"bufferView":0,"byteOffset":0},{"type":"VEC3","componentType":5126,"count":2143,"bufferView":0,"byteOffset":12},{"type":"VEC4","componentType":5126,"count":2143,"bufferView":0,"byteOffset":24},{"type":"VEC2","componentType":5126,"count":2143,"bufferView":0,"byteOffset":40},{"type":"VEC2","componentType":5126,"count":2143,"bufferView":0,"byteOffset":48},{"type":"SCALAR","componentType":5125,"count":11904,"bufferView":1,"byteOffset":0},{"type":"SCALAR","componentType":5126,"count":101,"max":[3.3333332538604736],"min":[0],"bufferView":2,"byteOffset":0},{"type":"VEC4","componentType":5126,"count":101,"bufferView":2,"byteOffset":404}],"bufferViews":[{"buffer":0,"byteOffset":0,"byteLength":120008,"byteStride":56,"target":34962},{"buffer":0,"byteOffset":120008,"byteLength":47616,"target":34963},{"buffer":0,"byteOffset":167624,"byteLength":2020}],"samplers":[{"magFilter":9729,"minFilter":9987,"wrapS":10497,"wrapT":10497}],"textures":[{"source":0,"sampler":0},{"source":1,"sampler":0},{"source":3,"sampler":0},{"source":2,"sampler":0}],"images":[{"mimeType":"image/jpeg","uri":"baseColor_1.jpg"},{"mimeType":"image/png","uri":"normal_1.png"},{"mimeType":"image/png","uri":"specular_1.png"},{"mimeType":"image/png","uri":"metallicRoughness_1.png"}],"buffers":[{"uri":"moon.bin","byteLength":169644}],"materials":[{"name":"Material_39","doubleSided":true,"pbrMetallicRoughness":{"metallicFactor":0,"baseColorTexture":{"index":0},"metallicRoughnessTexture":{"index":2}},"normalTexture":{"index":1,"scale":0.07342720826843567},"extensions":{"KHR_materials_ior":{"ior":1000},"KHR_materials_specular":{"specularTexture":{"index":3},"specularColorTexture":{"index":3}}}}],"meshes":[{"name":"Sphere001_Material #39_0","primitives":[{"attributes":{"NORMAL":1,"POSITION":0,"TANGENT":2,"TEXCOORD_0":3,"TEXCOORD_1":4},"mode":4,"material":0,"indices":5}]}],"nodes":[{"name":"Sketchfab_model","rotation":[-0.7071067811865475,0,0,0.7071067811865476],"scale":[0.06666667014360428,0.06666667014360428,0.06666667014360428],"children":[1]},{"name":"8e5ffbca7e2c4ff5a6f6c4d20bbddd90.fbx","rotation":[0.7071067811865475,0,0,0.7071067811865476],"children":[2]},{"name":"Object_2","children":[3]},{"name":"RootNode","children":[4,6]},{"name":"Sphere001","rotation":[-0.7071068286895752,0,0,0.7071068286895752],"children":[5]},{"name":"Sphere001_Material #39_0","mesh":0},{"name":"CoronaLight001","translation":[379.819580078125,0,-5.32666015625],"rotation":[-0.704416036605835,-0.061628419905900955,-0.061628419905900955,0.704416036605835]}],"animations":[{"name":"Take 001","samplers":[{"input":6,"output":7,"interpolation":"LINEAR"}],"channels":[{"sampler":0,"target":{"node":4,"path":"rotation"}}]}],"scenes":[{"name":"Sketchfab_Scene","nodes":[0]}],"scene":0,"extensionsUsed":["KHR_materials_ior","KHR_materials_specular"]}